<?xml version="1.0" encoding="UTF-8"?>
<svg version="1.1" xmlns="http://www.w3.org/2000/svg" width="2249" height="1659">
<path d="M0 0 C1.11135 -0.00515877 1.11135 -0.00515877 2.24515152 -0.01042175 C7.22243068 0.01697706 7.22243068 0.01697706 9.47753906 1.14453125 C11.38465291 1.30489906 11.38465291 1.30489906 13.54003906 1.26953125 C14.25289062 1.27210938 14.96574219 1.2746875 15.70019531 1.27734375 C18.02362279 1.16623751 20.23572208 0.9192996 22.53778076 0.61569405 C27.50820881 0.0583412 32.30613506 0.19240887 37.29101562 0.47311401 C38.23817853 0.52055665 39.18534143 0.56799929 40.16120625 0.61687958 C43.31392339 0.77656371 46.46599156 0.94662695 49.61816406 1.11669922 C51.88741391 1.23377968 54.15669695 1.35021809 56.42601013 1.46606445 C62.57760347 1.78193424 68.7286913 2.10681807 74.87972641 2.43335485 C81.33239124 2.77438992 87.78547974 3.1072113 94.23852539 3.44094849 C105.0829349 4.00292146 115.92706076 4.57007148 126.77099609 5.14111328 C137.89417741 5.72684742 149.01752629 6.30922617 160.14111328 6.88720703 C160.82510689 6.9227483 161.50910049 6.95828957 162.21382117 6.99490784 C164.96436686 7.13781702 167.7149137 7.28070403 170.46546209 7.42356127 C191.61986475 8.52231936 212.77409488 9.62444062 233.92781258 10.73631287 C236.13309875 10.85217486 238.33839395 10.96786538 240.54369926 11.08336258 C246.32768496 11.38640238 252.11143911 11.69324655 257.89489555 12.00622892 C260.41873287 12.14138214 262.94280319 12.27127259 265.4669342 12.40080643 C266.98903761 12.48245306 268.51112812 12.56434054 270.03320312 12.64651489 C271.32897278 12.71430712 272.62474243 12.78209934 273.95977783 12.85194588 C279.30878117 13.29684251 284.36433581 14.45544947 289.54003906 15.83203125 C290.58369629 16.09532227 291.62735352 16.35861328 292.70263672 16.62988281 C295.96450579 17.45476826 299.22087867 18.29934686 302.47753906 19.14453125 C305.73200244 19.97252706 308.98788758 20.79453252 312.24487305 21.61254883 C314.24699192 22.11634227 316.24791456 22.62492601 318.24731445 23.1394043 C327.39588778 25.46604682 336.47036327 27.3303493 345.91503906 27.76953125 C346.64529297 27.81110352 347.37554688 27.85267578 348.12792969 27.89550781 C352.27365035 28.11245626 356.32790269 28.08859953 360.47753906 27.89453125 C370.46953853 27.79884863 380.11663758 31.9865072 389.45166016 35.18359375 C397.42994028 37.90518533 404.8949918 39.89870635 413.33691406 40.3515625 C429.11646941 41.27843682 443.76483356 45.86128559 458.84654236 50.28186035 C464.78752256 52.00052093 470.77237016 53.45669933 476.8120575 54.78536987 C484.35492202 56.4731467 491.03275886 59.44376822 497.93847656 62.85327148 C509.09800708 68.34188591 520.57059503 72.63744479 532.27508545 76.81280518 C549.46833682 82.95589697 566.38505031 89.31000525 582.94873047 97.00244141 C585.57537302 98.18871615 588.22466563 99.2921482 590.89550781 100.375 C591.76578613 100.72868652 592.63606445 101.08237305 593.53271484 101.44677734 C595.11725065 102.0852203 596.70510251 102.71554715 598.29736328 103.33447266 C603.68684643 105.5212756 607.97139654 108.49028396 612.47753906 112.14453125 C613.31800781 112.81097656 614.15847656 113.47742188 615.02441406 114.1640625 C615.75144531 114.75574219 616.47847656 115.34742187 617.22753906 115.95703125 C620.92443254 118.94407575 624.7002612 121.7814817 628.54003906 124.58203125 C642.9828819 135.37223254 642.9828819 135.37223254 645.47753906 143.14453125 C645.96262611 147.80136686 645.2731805 150.38116777 642.47753906 154.14453125 C638.76074826 156.00292665 634.50315443 155.76650443 630.59472656 154.56640625 C624.57320225 151.79499339 619.43808842 147.52159404 614.22265625 143.4921875 C611.02888065 141.02581351 607.81830098 138.58213504 604.60253906 136.14453125 C604.00376953 135.68304688 603.405 135.2215625 602.78808594 134.74609375 C600.71143842 133.17175574 598.6022214 131.65349379 596.47753906 130.14453125 C595.5594043 129.4805835 594.64126953 128.81663574 593.6953125 128.13256836 C582.72896492 120.61665273 570.71303074 115.78673796 558.47753906 110.70703125 C554.26710365 108.94248252 550.05976084 107.17063201 545.85253906 105.3984375 C544.82081573 104.96582108 543.78909241 104.53320465 542.72610474 104.08747864 C534.73508055 100.72151721 526.83383737 97.18028051 518.98364258 93.49781799 C500.67933981 85.00506563 481.22519948 81.11800413 461.51660156 77.39648438 C433.55011609 72.11477847 405.68699674 66.39631799 378.35253906 58.39453125 C366.50157861 54.94752748 354.54875479 52.79529503 342.37939453 50.80224609 C338.15489056 50.09014412 333.94375033 49.31929374 329.73144531 48.5390625 C314.11415584 45.67271298 299.00143754 43.52885198 283.09082031 43.21875 C270.26579867 42.85451172 258.23129 41.31680288 246.04394531 37.265625 C240.30752136 35.46238987 234.8167505 34.99011814 228.83300781 34.8984375 C227.33495644 34.86543804 225.8369097 34.83222764 224.33886719 34.79882812 C222.02062885 34.75202197 219.70240008 34.70767506 217.3840332 34.66772461 C208.2714927 34.50361437 199.35272012 33.99899221 190.3109436 32.8316803 C185.00087108 32.15962094 179.87944501 31.97001054 174.54003906 32.14453125 C163.30348282 32.30674876 152.4485931 31.05080045 141.35253906 29.37890625 C125.32840906 26.96469681 109.68011345 26.07936697 93.47753906 26.01953125 C92.48995605 26.01477783 91.50237305 26.01002441 90.48486328 26.00512695 C83.85520213 26.0190787 77.24809961 26.22251028 70.62460327 26.49230957 C58.9352295 26.96780952 47.26081059 27.25088624 35.56347656 27.35546875 C34.1023141 27.36978498 32.6411528 27.38422023 31.17999268 27.39877319 C25.22990412 27.45667931 19.2798747 27.51268799 13.32958984 27.54589844 C-8.02482629 27.59334178 -8.02482629 27.59334178 -29.12646484 30.5637207 C-33.56541344 31.32290537 -37.5143414 30.99959959 -41.96582031 30.49462891 C-49.86564114 29.71701063 -57.84041982 29.85510384 -65.77246094 29.83203125 C-67.16791138 29.82710663 -67.16791138 29.82710663 -68.59155273 29.82208252 C-81.66410758 29.80720821 -94.04073449 30.6869962 -106.90527344 33.12890625 C-128.02567997 37.13311983 -150.23250584 36.69034536 -171.65283203 37.44775391 C-172.73806152 37.48687393 -173.82329102 37.52599396 -174.94140625 37.56629944 C-176.97793692 37.6392135 -179.01455474 37.7097527 -181.05126953 37.77732849 C-187.0120188 37.99104969 -192.93079161 38.40611557 -198.87234497 38.92707825 C-201.78431974 39.16601785 -204.67924326 39.2832491 -207.60058594 39.3203125 C-219.86783708 39.57724909 -230.78119473 40.51418572 -242.52246094 44.14453125 C-249.57461962 46.3210061 -256.05761649 47.31173197 -263.39746094 47.51953125 C-273.25476983 47.83164318 -282.94708725 48.953271 -292.70996094 50.26953125 C-293.88478531 50.4277536 -293.88478531 50.4277536 -295.08334351 50.58917236 C-301.23236132 51.42212932 -307.3776403 52.28123264 -313.52246094 53.14453125 C-314.56321777 53.29055786 -315.60397461 53.43658447 -316.67626953 53.58703613 C-320.02087857 54.05640041 -323.36542394 54.52621639 -326.70996094 54.99609375 C-327.83010086 55.15332916 -328.95024078 55.31056458 -330.10432434 55.4725647 C-335.63861212 56.24990731 -341.17230071 57.03106224 -346.70483398 57.82080078 C-348.75211361 58.11101862 -350.79939542 58.40122115 -352.84667969 58.69140625 C-353.76300171 58.82350494 -354.67932373 58.95560364 -355.62341309 59.09170532 C-372.00687384 61.4049803 -372.00687384 61.4049803 -380.23339844 61.1015625 C-381.16796875 61.08029297 -382.10253906 61.05902344 -383.06542969 61.03710938 C-384.97723231 60.98305151 -386.88874366 60.91767346 -388.79980469 60.84179688 C-394.63413687 60.732251 -397.09009024 61.12363471 -401.52246094 65.14453125 C-408.2326926 68.46034787 -414.51644695 68.33448164 -421.83496094 68.01953125 C-436.18514884 67.78828005 -449.55384955 70.09779154 -463.52246094 73.14453125 C-464.40224609 73.33635986 -465.28203125 73.52818848 -466.18847656 73.72583008 C-487.95233082 78.48993628 -509.65286605 83.53360467 -531.34667969 88.60546875 C-535.0117014 89.46175729 -538.67674494 90.31795216 -542.34182739 91.17398071 C-544.75008129 91.73678481 -547.15818335 92.30023899 -549.56613159 92.86434937 C-562.78479211 95.95842545 -575.99450658 98.93815404 -589.33496094 101.45703125 C-609.08317037 105.21548524 -628.00821812 111.62621924 -647.08862305 117.84985352 C-657.18511782 121.11077614 -667.37889394 123.89163416 -677.63964844 126.58203125 C-683.42531058 128.10153569 -689.1543629 129.77662549 -694.87744141 131.51489258 C-699.00096548 132.75071552 -703.11866808 133.72186773 -707.33496094 134.58203125 C-714.79006139 136.2273589 -721.01835434 139.69484878 -727.67578125 143.31567383 C-734.21451028 146.74555825 -740.82523122 149.00596919 -747.89746094 151.08203125 C-749.04520996 151.42919189 -750.19295898 151.77635254 -751.37548828 152.1340332 C-756.41564847 153.65394225 -761.46190029 155.14014215 -766.53808594 156.53515625 C-790.51325891 163.20518854 -813.29926682 173.95137119 -836.02246094 183.95703125 C-836.92771515 184.35481781 -837.83296936 184.75260437 -838.76565552 185.16244507 C-855.11684985 192.36143126 -870.83851685 199.84890596 -885.95996094 209.39453125 C-894.82112091 214.91461792 -903.71112525 219.89917846 -913.20996094 224.26953125 C-932.40817798 233.13153678 -950.3094398 244.4250674 -967.50195312 256.70263672 C-968.78873644 257.62092361 -970.08056549 258.53220987 -971.37890625 259.43408203 C-980.30792882 265.64742258 -987.10842031 272.90343113 -993.98339844 281.27490234 C-995.8921019 283.59356528 -997.83613534 285.8806091 -999.78442383 288.16601562 C-1001.14164474 289.76268891 -1002.48647069 291.3692437 -1003.83105469 292.9765625 C-1005.63400795 295.12098917 -1007.48062028 297.21278201 -1009.37011719 299.28125 C-1022.65370262 314.00317097 -1029.51281952 330.64178997 -1028.87011719 350.60546875 C-1027.7837216 368.97684647 -1018.14454414 382.12887939 -1007.16552734 396.03417969 C-1005.63710367 397.99728433 -1004.15642563 399.98615126 -1002.69042969 401.99609375 C-997.39686991 409.16996907 -991.95285345 414.57706288 -984.71777344 419.77734375 C-981.5708705 422.10866793 -978.75314013 424.5928405 -975.89746094 427.26953125 C-963.30092189 438.8873464 -948.79417039 446.59481339 -933.52246094 454.08203125 C-921.63248972 459.93919321 -910.7512213 466.97055825 -899.74487305 474.32617188 C-897.92587784 475.54111908 -896.10506502 476.75334928 -894.2824707 477.96289062 C-890.36620174 480.56310323 -886.46661907 483.16892119 -882.64746094 485.91015625 C-873.33805879 492.39955244 -863.57855325 495.64366266 -852.81567383 499.10766602 C-840.81266971 503.1014421 -830.16821428 508.90027155 -819.36181641 515.43115234 C-815.33775634 517.85942866 -811.27712098 520.22284099 -807.2097168 522.57763672 C-805.67559454 523.47215808 -804.14723337 524.37718304 -802.63793945 525.31298828 C-797.23700248 528.61834531 -791.32705858 530.57596979 -785.39746094 532.70703125 C-783.26815223 533.47445358 -781.14048055 534.2464366 -779.01464844 535.0234375 C-778.07991699 535.35931885 -777.14518555 535.6952002 -776.18212891 536.04125977 C-773.4186986 537.18757348 -770.98339691 538.44159921 -768.52246094 540.14453125 C-768.52246094 540.80453125 -768.52246094 541.46453125 -768.52246094 542.14453125 C-767.02972656 542.42103516 -767.02972656 542.42103516 -765.50683594 542.703125 C-745.64775886 546.68750486 -728.25819177 556.7623503 -710.31967163 565.78460693 C-691.90112251 575.03875784 -673.63421935 583.70022577 -653.92089844 589.86889648 C-643.19252071 593.34981917 -633.15114985 598.21538406 -623.01229858 603.10765076 C-610.8573516 609.17804634 -610.8573516 609.17804634 -597.70996094 612.01953125 C-590.94298427 612.92603576 -590.94298427 612.92603576 -588.39746094 615.89453125 C-586.52246094 619.14453125 -586.52246094 619.14453125 -585.36230469 622.32421875 C-584.75515625 623.25492188 -584.14800781 624.185625 -583.52246094 625.14453125 C-580.85567735 625.56742948 -578.85587684 625.64802222 -576.20996094 625.51953125 C-568.24294069 625.5520497 -563.42615328 627.85958539 -556.83496094 632.09375 C-553.69406684 634.03828939 -550.71514969 635.39406705 -547.27246094 636.70703125 C-543.23744502 638.27856377 -540.17146562 640.03314756 -536.77246094 642.70703125 C-526.56182286 650.14321474 -512.85969831 650.54694892 -500.7019043 652.00537109 C-491.35031845 653.18069416 -482.73529005 654.42556175 -476.52246094 662.14453125 C-475.96558594 662.94890625 -475.40871094 663.75328125 -474.83496094 664.58203125 C-469.17711451 670.85153675 -462.53433053 673.36147643 -454.39746094 675.01953125 C-445.96377484 676.75379532 -439.02110037 679.99210542 -431.48876953 684.08007812 C-417.61648702 691.58978159 -403.26470589 697.72256015 -388.38964844 702.96875 C-375.67358864 707.503924 -364.37669245 713.44890479 -352.74902344 720.27490234 C-345.48634536 724.483255 -338.11063546 728.49353031 -330.74829102 732.52416992 C-330.14071457 732.856884 -329.53313812 733.18959808 -328.90715027 733.53239441 C-328.3122731 733.85814957 -327.71739594 734.18390472 -327.10449219 734.51953125 C-323.34428459 736.57893217 -319.60509487 738.65946113 -315.90917969 740.83203125 C-308.99479119 744.83924362 -303.01042747 746.84683693 -295.17016602 747.92504883 C-288.31369202 749.01417302 -284.46226433 752.56710726 -279.52246094 757.14453125 C-274.40113508 760.55874849 -269.53025727 761.20365644 -263.52246094 760.14453125 C-254.80897661 756.70737826 -249.10354543 748.2966255 -243.52246094 741.14453125 C-242.93094238 740.39268555 -242.33942383 739.64083984 -241.72998047 738.86621094 C-221.77316463 713.35982354 -208.00982298 686.26616488 -203.21679688 653.97680664 C-202.34057414 648.6896703 -200.77295377 644.27720455 -198.53417969 639.3984375 C-195.33893533 632.23300632 -194.20888937 625.51043776 -193.27246094 617.76953125 C-191.73342487 606.47859669 -189.22276996 595.89607458 -185.64746094 585.08203125 C-180.66931616 569.95232176 -176.89293373 554.71440614 -173.52246094 539.14453125 C-173.16446702 537.49461176 -172.80639021 535.84471026 -172.44824219 534.19482422 C-172.16782578 532.90273041 -172.16782578 532.90273041 -171.88174438 531.58453369 C-170.90912438 527.10424776 -169.93523542 522.6242401 -168.95996094 518.14453125 C-168.67031464 516.81261749 -168.67031464 516.81261749 -168.37481689 515.45379639 C-164.95131442 499.74399196 -161.11423186 484.24932065 -156.26293945 468.91308594 C-149.69883324 447.44132975 -147.33366031 425.79899114 -145.2434082 403.50097656 C-141.21686118 361.01218935 -141.21686118 361.01218935 -131.52246094 347.14453125 C-130.92304688 346.24927734 -130.92304688 346.24927734 -130.31152344 345.3359375 C-124.82897943 337.95842022 -116.35839889 334.55782172 -107.52246094 333.14453125 C-106.84779785 332.96712402 -106.17313477 332.7897168 -105.47802734 332.60693359 C-102.7167693 332.16056706 -101.1664757 332.17537866 -98.52246094 333.14453125 C-94.8728107 337.12440883 -92.38024293 341.7059345 -89.77246094 346.39453125 C-89.03966534 347.64362202 -88.3040096 348.89103948 -87.56542969 350.13671875 C-83.68376069 356.77490053 -80.43579004 363.44380021 -77.59570312 370.60253906 C-76.2220317 373.85610295 -74.53215643 376.49343856 -72.52246094 379.39453125 C-62.93942044 394.49234033 -61.37524587 412.36367324 -60.39746094 429.83203125 C-60.3564325 430.54974701 -60.31540405 431.26746277 -60.27313232 432.00692749 C-59.11799587 452.52947334 -58.28401286 472.10192176 -63.52246094 492.14453125 C-63.81749512 493.28035645 -64.1125293 494.41618164 -64.41650391 495.58642578 C-66.66451627 504.14145534 -69.05472803 512.65054206 -71.52246094 521.14453125 C-71.75578125 521.96421387 -71.98910156 522.78389648 -72.22949219 523.62841797 C-76.07579205 537.00671743 -82.73771766 548.65709421 -89.98071289 560.4465332 C-95.52778696 569.47908469 -100.22728104 578.55245899 -104.38964844 588.30078125 C-108.76008101 598.3826819 -113.88086376 607.58054216 -120.08496094 616.64453125 C-121.6758664 618.99362366 -123.26113613 621.34650504 -124.84667969 623.69921875 C-125.27922058 624.33967133 -125.71176147 624.9801239 -126.15740967 625.63998413 C-130.0589592 631.42767823 -133.89864946 637.25517321 -137.72949219 643.08984375 C-138.35950638 644.04892639 -138.98952057 645.00800903 -139.6386261 645.99615479 C-142.17729989 649.86185849 -144.71535746 653.72795554 -147.24905396 657.59692383 C-153.85361846 667.67905072 -160.48266314 677.71798446 -167.57931519 687.46328735 C-178.43010058 702.51954968 -183.34298739 718.82716559 -185.83496094 737.08203125 C-187.42259754 748.2450445 -189.58268798 759.08778177 -192.33496094 770.01953125 C-195.06466322 780.94474146 -196.48125949 790.91289101 -195.52246094 802.14453125 C-193.86537109 803.00111328 -193.86537109 803.00111328 -192.17480469 803.875 C-182.24441563 809.03914926 -172.4541146 814.40284472 -162.73852539 819.96020508 C-157.25340857 823.08212377 -151.73359716 826.11895081 -146.15136719 829.0625 C-145.52696243 829.39261581 -144.90255768 829.72273163 -144.25923157 830.06285095 C-141.21223541 831.67233239 -138.16086314 833.27152239 -135.10083008 834.85620117 C-129.14461839 837.99098156 -123.86296465 841.2682372 -118.65429688 845.52392578 C-115.06986188 848.24878601 -111.10990397 850.15725916 -107.08496094 852.14453125 C-101.79804008 854.82811768 -96.74121978 857.48291757 -91.95996094 861.01953125 C-86.41977252 865.08554779 -80.34837744 868.58762519 -73.27246094 868.33203125 C-67.88733105 866.62674012 -65.19929566 863.07044432 -62.42089844 858.22241211 C-61.42733041 856.17852256 -60.52396995 854.11624606 -59.64746094 852.01953125 C-59.31141846 851.24311279 -58.97537598 850.46669434 -58.62915039 849.66674805 C-56.13827225 843.83032988 -53.91442739 837.90600945 -51.70996094 831.95703125 C-45.41962949 815.07344883 -37.78755076 798.97188321 -27.52246094 784.14453125 C-25.82577611 781.65067386 -24.14113886 779.14886251 -22.45996094 776.64453125 C-21.82973022 775.71012207 -21.82973022 775.71012207 -21.18676758 774.75683594 C-18.3904436 770.5696987 -15.84279511 766.29431916 -13.39746094 761.89453125 C-3.31578245 744.02063912 9.66002162 732.14343526 26.33691406 720.63134766 C28.28695029 719.27690871 30.21391574 717.89670784 32.13378906 716.5 C46.319419 706.24769599 61.85472615 700.67696813 79.54394531 701.46875 C86.08403391 702.59232033 89.38584356 706.16814483 93.47753906 711.14453125 C94.10402344 711.83289063 94.73050781 712.52125 95.37597656 713.23046875 C100.25516563 718.6594256 100.87617663 721.71324264 100.80371094 728.86816406 C100.27517505 734.17725957 98.18376358 738.34266155 95.72753906 743.01953125 C95.22875244 744.00856445 94.72996582 744.99759766 94.21606445 746.01660156 C92.66185994 749.07304999 91.07180445 752.10882765 89.47753906 755.14453125 C88.55409447 756.95429061 87.63090812 758.76418177 86.70800781 760.57421875 C77.79551999 777.72584139 66.89977704 793.63562682 55.77050781 809.41015625 C53.20305621 813.06187175 50.77537808 816.77492553 48.40917969 820.55932617 C44.309659 827.10155454 40.11408042 833.02805886 34.78222656 838.64453125 C25.83167161 848.35360781 18.11972939 859.39560006 10.47753906 870.14453125 C10.05085938 870.74346191 9.62417969 871.34239258 9.18457031 871.95947266 C3.92176642 879.41443678 -0.73807259 887.08548531 -5.02246094 895.14453125 C-5.44406494 895.93375977 -5.86566895 896.72298828 -6.30004883 897.53613281 C-8.62212958 902.01181377 -10.3235389 906.24458901 -11.52246094 911.14453125 C-10.94101318 911.41894043 -10.35956543 911.69334961 -9.76049805 911.97607422 C-7.57433873 913.11744637 -5.69501073 914.37507665 -3.71386719 915.83984375 C-2.9778125 916.38253906 -2.24175781 916.92523437 -1.48339844 917.484375 C-0.29617188 918.36802734 -0.29617188 918.36802734 0.91503906 919.26953125 C2.16607422 920.19572266 2.16607422 920.19572266 3.44238281 921.140625 C10.54867059 926.41746667 17.58837716 931.78029313 24.61328125 937.16479492 C29.7643356 941.10543745 34.95802427 944.97646124 40.20361328 948.7902832 C60.3711276 963.47084138 60.3711276 963.47084138 63.97753906 970.76953125 C67.72046073 978.28145766 75.47681922 981.59151613 82.54003906 985.51953125 C91.22842001 990.51451594 97.06740948 997.48328924 103.16259766 1005.29418945 C105.64489594 1008.35059448 108.24588239 1011.27171024 110.91894531 1014.16015625 C111.69931656 1015.00441162 111.69931656 1015.00441162 112.49545288 1015.86572266 C116.23784112 1019.88306785 120.07466789 1023.79129149 123.98535156 1027.64453125 C124.52876694 1028.18015686 125.07218231 1028.71578247 125.63206482 1029.26763916 C127.84092368 1031.44020705 130.05252529 1033.60978225 132.27392578 1035.76953125 C162.0110565 1064.73212154 186.82678455 1110.58215748 187.85253906 1152.89453125 C187.10259735 1185.98978512 176.29934223 1228.08451005 152.47753906 1252.14453125 C146.7811623 1257.00864517 140.64978053 1260.21141111 133.72753906 1263.00390625 C131.17476703 1264.06642467 131.17476703 1264.06642467 129.47753906 1267.14453125 C128.24893021 1276.465144 130.59734713 1285.41833252 132.85253906 1294.39453125 C133.17409803 1295.71714549 133.4944163 1297.04006201 133.81347656 1298.36328125 C134.89479608 1302.81471327 135.98927867 1307.26209023 137.1394043 1311.69628906 C140.19841735 1323.50492881 137.80825365 1334.98510384 132.04785156 1345.6953125 C126.76139514 1353.94060647 120.04349298 1360.87327023 110.47363281 1363.74609375 C102.88518095 1365.26081408 96.18597518 1363.98611433 89.47753906 1360.14453125 C85.12682901 1356.66590117 82.96196987 1352.22812114 80.60253906 1347.26953125 C77.76559379 1341.42616086 74.8004865 1336.05526815 69.47753906 1332.14453125 C63.09386834 1330.14883459 56.25091615 1334.98137743 50.71850586 1337.83984375 C49.32554233 1338.57327437 47.93402334 1339.30945491 46.54394531 1340.04833984 C43.31122617 1341.7632393 40.05378294 1343.42716286 36.79003906 1345.08203125 C35.69304687 1345.64792969 34.59605469 1346.21382812 33.46582031 1346.796875 C25.56796152 1350.35865446 16.57336891 1349.94590284 8.47753906 1347.14453125 C0.28665866 1343.21240615 -6.22664281 1337.98095771 -10.95996094 1330.20703125 C-13.26630968 1326.77767727 -13.26630968 1326.77767727 -17.20996094 1326.51953125 C-24.53677805 1327.21335863 -31.01767957 1329.15582313 -36.52246094 1334.14453125 C-37.18246094 1334.14453125 -37.84246094 1334.14453125 -38.52246094 1334.14453125 C-38.80081787 1334.72251465 -39.0791748 1335.30049805 -39.3659668 1335.89599609 C-44.52750878 1345.93141972 -51.52449352 1355.5134603 -59.25292969 1363.6875 C-66.42840103 1371.45578136 -72.51885912 1379.96147809 -78.14746094 1388.89453125 C-85.44544258 1400.38939448 -93.92129967 1408.65024404 -104.73046875 1416.77880859 C-106.47485102 1418.10824652 -108.18528165 1419.47133601 -109.88964844 1420.8515625 C-121.20959549 1429.95369649 -131.7104405 1436.19810593 -146.52246094 1435.14453125 C-155.71286032 1433.62116815 -162.80800703 1425.85763372 -168.08496094 1418.64453125 C-170.49216517 1414.7983837 -171.08617683 1411.62264514 -171.33496094 1407.14453125 C-171.61535464 1404.15366512 -172.65263782 1402.46569098 -174.52246094 1400.14453125 C-175.44542969 1399.50128906 -176.36839844 1398.85804687 -177.31933594 1398.1953125 C-181.79369196 1394.52297007 -183.44721124 1389.3155971 -185.58496094 1384.08203125 C-188.80879192 1375.22819851 -188.80879192 1375.22819851 -195.52246094 1369.14453125 C-201.77417707 1366.96824735 -207.5215429 1366.99401483 -214.02246094 1367.76953125 C-215.31361816 1367.91285889 -215.31361816 1367.91285889 -216.63085938 1368.05908203 C-228.04433004 1369.43280921 -239.44394485 1371.3853792 -249.52246094 1377.14453125 C-250.18246094 1377.14453125 -250.84246094 1377.14453125 -251.52246094 1377.14453125 C-251.3690625 1378.26214844 -251.21566406 1379.37976562 -251.05761719 1380.53125 C-250.19711696 1388.30610479 -250.14619538 1396.14292835 -249.95996094 1403.95703125 C-249.92968811 1405.19948608 -249.92968811 1405.19948608 -249.89880371 1406.46704102 C-249.79953601 1410.57899172 -249.70551618 1414.69101212 -249.61767578 1418.80322266 C-249.54298992 1422.29631719 -249.45013776 1425.78866365 -249.35449219 1429.28125 C-248.79603865 1455.4881351 -253.48368532 1485.32508223 -272.17871094 1504.98046875 C-277.54650737 1509.93673413 -283.65769301 1514.68172528 -291.28808594 1514.6328125 C-297.94538473 1513.17798322 -304.20665554 1508.26776933 -309.52246094 1504.14453125 C-308.09650512 1501.26969954 -306.62743528 1498.42121436 -305.13183594 1495.58203125 C-303.1748766 1491.86336243 -301.22653113 1488.14038167 -299.28417969 1484.4140625 C-297.75182694 1481.47700999 -296.20075337 1478.5594297 -294.60449219 1475.65625 C-281.56601561 1451.42278324 -281.53986129 1418.38083809 -284.27246094 1391.58203125 C-284.33409424 1390.88609863 -284.39572754 1390.19016602 -284.45922852 1389.47314453 C-284.84817636 1386.23473975 -285.37985374 1384.32573668 -287.41308594 1381.7421875 C-292.42115493 1377.94903895 -298.54177313 1378.75209767 -304.52246094 1379.14453125 C-309.05667667 1379.85279735 -313.51025394 1380.79396495 -317.97045898 1381.8605957 C-319.97732024 1382.33614474 -321.98987234 1382.77722472 -324.00488281 1383.21679688 C-325.28814453 1383.51650391 -326.57140625 1383.81621094 -327.89355469 1384.125 C-329.62496704 1384.52561646 -329.62496704 1384.52561646 -331.39135742 1384.93432617 C-336.95782967 1387.08582738 -340.02415886 1391.59401152 -343.39746094 1396.33203125 C-344.32171875 1397.62173828 -344.32171875 1397.62173828 -345.26464844 1398.9375 C-346.00972656 1399.99582031 -346.75480469 1401.05414062 -347.52246094 1402.14453125 C-348.30133667 1403.21997192 -348.30133667 1403.21997192 -349.09594727 1404.31713867 C-353.65324557 1410.68057862 -357.6088872 1417.27276544 -361.45996094 1424.08203125 C-362.78016879 1426.39405022 -364.10148255 1428.70539159 -365.42480469 1431.015625 C-365.76176361 1431.60463593 -366.09872253 1432.19364685 -366.44589233 1432.80050659 C-370.06945017 1439.12256182 -373.79343346 1445.38422989 -377.52246094 1451.64453125 C-383.52490653 1461.73293933 -389.44820578 1471.86333995 -395.27563477 1482.05395508 C-397.96655636 1486.75359788 -400.67113478 1491.4310242 -403.54199219 1496.0234375 C-408.40030223 1503.83158986 -411.636294 1510.54576276 -413.66308594 1519.58984375 C-414.79056831 1524.25352082 -416.57947314 1528.53154019 -418.38964844 1532.96484375 C-419.54196315 1536.19927195 -420.13451793 1539.26481668 -420.70996094 1542.64453125 C-422.29634774 1550.01812799 -426.30145847 1554.93210339 -431.10351562 1560.48876953 C-432.55239375 1562.17945973 -433.95035698 1563.9032405 -435.34277344 1565.640625 C-442.07168171 1573.95679355 -448.69429108 1582.08804535 -459.90527344 1583.4296875 C-464.09499646 1583.6735669 -467.58137897 1583.66100328 -471.14746094 1581.26953125 C-474.00336354 1577.51176467 -474.4050065 1575.4481601 -474.09667969 1570.81640625 C-472.53834623 1563.56538527 -467.5882629 1558.15719273 -462.89746094 1552.64453125 C-453.6932865 1541.58092764 -453.11900884 1529.95014338 -453.68261719 1515.97265625 C-453.25068338 1508.34533727 -451.11068351 1502.71742757 -446.83496094 1496.45703125 C-440.21939701 1486.28189631 -435.09039937 1475.99926592 -431.02246094 1464.58203125 C-426.22123844 1451.15769124 -419.16703156 1439.90800198 -411.03125 1428.30517578 C-398.00079996 1409.88834886 -398.00079996 1409.88834886 -389.52246094 1389.14453125 C-390.50757156 1389.15785492 -391.49268219 1389.17117859 -392.50764465 1389.18490601 C-401.87575898 1389.30751766 -411.24370668 1389.39694348 -420.61244678 1389.45540428 C-425.42695345 1389.48647218 -430.24080301 1389.52848457 -435.05493164 1389.59716797 C-439.71697454 1389.66325122 -444.37839298 1389.69842074 -449.04086876 1389.71379471 C-450.80318702 1389.72472408 -452.56547832 1389.74605653 -454.32752419 1389.77891159 C-465.82397205 1389.98438489 -475.39059996 1388.51759021 -486.22740173 1384.60466003 C-493.02955886 1382.1687455 -500.15956506 1381.20059835 -507.27246094 1380.08203125 C-522.07935525 1377.73921259 -535.95480003 1374.50432114 -548.84667969 1366.44921875 C-549.73105713 1365.89766113 -549.73105713 1365.89766113 -550.63330078 1365.33496094 C-551.56843506 1364.74569824 -551.56843506 1364.74569824 -552.52246094 1364.14453125 C-553.21162598 1363.71301758 -553.90079102 1363.28150391 -554.61083984 1362.83691406 C-563.47198276 1357.26274536 -572.237089 1351.55347126 -580.52246094 1345.14453125 C-581.40289063 1344.48839844 -582.28332031 1343.83226562 -583.19042969 1343.15625 C-589.0624361 1338.46774875 -589.0624361 1338.46774875 -590.21777344 1335.14453125 C-590.51736326 1330.03153167 -588.59441195 1325.1716267 -585.52246094 1321.14453125 C-581.10224133 1317.27084639 -576.45238158 1315.04731944 -570.52246094 1315.14453125 C-560.93276795 1317.2989767 -553.04120742 1321.32728995 -544.77246094 1326.51953125 C-543.71414063 1327.16664062 -542.65582031 1327.81375 -541.56542969 1328.48046875 C-536.12973428 1331.82136704 -530.77808084 1335.25685209 -525.53051758 1338.88647461 C-515.73457004 1345.0236804 -503.71888435 1345.69145596 -492.52246094 1347.14453125 C-484.80150628 1348.14832731 -477.38660462 1349.32716848 -469.89355469 1351.48046875 C-459.55261588 1354.37661306 -448.79683455 1353.34701909 -438.27246094 1352.14453125 C-423.11133467 1350.45246745 -407.73173463 1350.52592453 -392.54589844 1351.91015625 C-379.32358401 1352.93514186 -363.78983365 1353.55153043 -352.70996094 1345.16015625 C-331.979219 1326.05825833 -317.35403596 1298.37795989 -303.77246094 1274.08203125 C-303.39057617 1273.39931152 -303.00869141 1272.7165918 -302.61523438 1272.01318359 C-297.85590213 1263.32513692 -294.65153056 1255.7490205 -294.05761719 1245.76953125 C-293.97962891 1244.53589844 -293.90164063 1243.30226563 -293.82128906 1242.03125 C-293.66564445 1239.47147492 -293.51194892 1236.91158046 -293.36035156 1234.3515625 C-292.97961695 1228.37743403 -292.47962463 1222.53735146 -291.45605469 1216.63671875 C-290.28033871 1209.48740449 -290.38371215 1202.49553097 -290.52246094 1195.26953125 C-290.63490553 1184.99739612 -290.41725829 1175.26160075 -288.52246094 1165.14453125 C-286.2446929 1152.36102253 -284.63632908 1141.50817716 -287.08496094 1128.64453125 C-288.70854099 1120.08915604 -288.51788881 1113.40925284 -286.04980469 1105.01171875 C-284.54843378 1099.56675898 -283.78959612 1094.25143417 -283.20996094 1088.64453125 C-282.19830281 1079.75911232 -280.82162947 1071.00225092 -279.21112061 1062.20690918 C-276.08288965 1045.05569648 -273.92508129 1027.81078234 -271.83990479 1010.50846481 C-268.26376265 980.8559474 -263.92944549 951.56640849 -257.16113281 922.45239258 C-254.20614037 909.04423876 -253.46321529 895.21407412 -252.30273438 881.55908203 C-251.31833526 870.2978529 -248.84660232 859.63679185 -246.11621094 848.68359375 C-244.49513568 842.13830566 -243.07286437 835.56038719 -241.70996094 828.95703125 C-241.39998169 827.46127563 -241.39998169 827.46127563 -241.08374023 825.93530273 C-240.14394091 821.35007755 -239.24544475 816.77007283 -238.52246094 812.14453125 C-239.18246094 811.89703125 -239.84246094 811.64953125 -240.52246094 811.39453125 C-242.91543356 810.39745932 -245.06561025 809.31294138 -247.33496094 808.08203125 C-252.45922896 805.51507213 -256.91768591 804.34715114 -262.58496094 806.08203125 C-269.61296992 811.01659075 -274.04855416 818.1514731 -278.53125 825.33691406 C-284.98167662 835.42411165 -293.89264369 843.56935176 -302.39746094 851.89453125 C-309.90918601 859.31335733 -316.95047743 866.80212531 -323.18261719 875.33398438 C-325.89011451 878.99265788 -328.71955786 882.5587949 -331.52246094 886.14453125 C-334.86646262 890.43464073 -338.20774584 894.72599826 -341.50683594 899.05078125 C-349.82404219 909.9056122 -358.739652 918.7184049 -369.76806641 926.82910156 C-377.34978806 932.43118147 -383.12103098 938.56726779 -388.83496094 946.01953125 C-395.75223615 955.04123045 -404.03259087 962.02326522 -412.93652344 969.03125 C-417.448319 972.71838203 -421.68283644 976.70673221 -425.94287109 980.67822266 C-427.5381655 982.15910955 -429.14382388 983.62789091 -430.75292969 985.09375 C-436.23695632 990.09972825 -441.61270873 995.17761924 -446.83496094 1000.45703125 C-452.12869787 1005.80265089 -457.59316843 1010.76570981 -463.43261719 1015.5078125 C-468.49909033 1019.63273569 -473.2988297 1023.71240304 -477.49511719 1028.75 C-489.04257685 1042.38890708 -501.18735274 1052.72195471 -516.20532227 1062.36767578 C-522.29985796 1066.29768505 -528.04342321 1070.3827808 -533.52246094 1075.14453125 C-534.70209903 1076.16411967 -535.88179125 1077.18364545 -537.06152344 1078.203125 C-539.01937706 1079.89844261 -540.97553922 1081.59560379 -542.92822266 1083.296875 C-548.36605035 1088.03185421 -553.91402852 1092.61291786 -559.52246094 1097.14453125 C-560.77032474 1098.16218686 -562.01768614 1099.1804587 -563.26464844 1100.19921875 C-571.93897885 1107.28097161 -580.63705472 1114.3285129 -589.52246094 1121.14453125 C-590.24304688 1121.69786133 -590.96363281 1122.25119141 -591.70605469 1122.82128906 C-600.64047295 1129.64263454 -609.60295378 1135.98715802 -619.38671875 1141.52978516 C-625.53294479 1145.04623251 -631.13189513 1149.1117608 -636.78417969 1153.36328125 C-640.58089602 1156.2145623 -644.47371361 1158.90934074 -648.39746094 1161.58203125 C-653.88844823 1165.32882258 -659.34722425 1169.11557896 -664.77246094 1172.95703125 C-671.00891801 1177.3724198 -677.25972276 1181.76649109 -683.52246094 1186.14453125 C-689.69934971 1190.46351849 -695.86813213 1194.79345569 -702.02246094 1199.14453125 C-709.02273343 1204.0936842 -716.04276878 1209.01411293 -723.07006836 1213.92480469 C-727.79580644 1217.22903126 -732.50951892 1220.54921255 -737.2109375 1223.88793945 C-759.59245746 1239.76338309 -759.59245746 1239.76338309 -771.78808594 1246.12890625 C-776.56279416 1248.66166953 -781.19003509 1251.44574507 -785.83496094 1254.20703125 C-793.5668386 1258.80130661 -801.31216421 1263.36977789 -809.08496094 1267.89453125 C-817.9678571 1273.06861174 -826.84242575 1278.25668424 -835.70996094 1283.45703125 C-836.6194902 1283.990401 -836.6194902 1283.990401 -837.5473938 1284.5345459 C-840.63731701 1286.34660828 -843.72713227 1288.15885462 -846.81689453 1289.97119141 C-852.28403953 1293.17789086 -857.75216119 1296.38292407 -863.22021484 1299.58807373 C-865.01502472 1300.64017222 -866.80976876 1301.69238295 -868.60449219 1302.74462891 C-874.21770619 1306.0355714 -879.83133586 1309.32579881 -885.44638062 1312.61361694 C-888.07020518 1314.15002061 -890.69380208 1315.68681282 -893.31738281 1317.22363281 C-894.55636475 1317.94924917 -895.7954556 1318.67467959 -897.03466797 1319.39990234 C-902.68166773 1322.70474247 -908.32157548 1326.01603512 -913.91308594 1329.4140625 C-917.72842408 1331.71004889 -921.56786937 1333.72429808 -925.58496094 1335.64453125 C-931.63095287 1338.58081856 -937.47137131 1341.79624711 -943.29907227 1345.14379883 C-955.75905721 1352.29142439 -968.42427697 1358.28101856 -981.63330078 1363.89941406 C-986.03124929 1365.79476115 -990.37851351 1367.78981785 -994.70996094 1369.83203125 C-995.48895752 1370.19925293 -996.2679541 1370.56647461 -997.07055664 1370.94482422 C-1001.56728627 1373.10259735 -1005.82532313 1375.47834066 -1010.08496094 1378.08203125 C-1016.49308545 1381.88193666 -1023.16013081 1384.34391214 -1030.14746094 1386.89453125 C-1041.41954327 1391.03963941 -1051.2313364 1396.28742757 -1061.31738281 1402.75 C-1090.21745928 1421.02693056 -1122.48136604 1434.2750507 -1154.33496094 1446.33203125 C-1159.23899357 1448.19611087 -1164.14115598 1450.06503355 -1169.04199219 1451.9375 C-1170.79009689 1452.60457474 -1170.79009689 1452.60457474 -1172.57351685 1453.28512573 C-1181.14795491 1456.57414013 -1189.62841601 1460.04849487 -1198.06420898 1463.67700195 C-1202.73757268 1465.66017098 -1206.61207338 1466.42145822 -1211.64746094 1466.95703125 C-1216.72138437 1467.52060922 -1221.53404292 1468.34116051 -1226.45092773 1469.71484375 C-1237.42757553 1472.74546033 -1248.13513455 1472.5690646 -1259.45263672 1472.21240234 C-1262.34655994 1472.14842027 -1265.21902504 1472.18580429 -1268.11230469 1472.2578125 C-1278.32942589 1472.37752212 -1284.90011574 1471.16114364 -1292.49511719 1464.10546875 C-1292.98641113 1463.62432617 -1293.47770508 1463.14318359 -1293.98388672 1462.64746094 C-1295.60084502 1461.06796311 -1297.26800733 1459.56170793 -1298.95605469 1458.05859375 C-1303.67594545 1453.82664662 -1308.25039418 1449.4627633 -1312.70996094 1444.95703125 C-1315.19305701 1442.17747164 -1315.19305701 1442.17747164 -1317.52246094 1441.14453125 C-1317.04817286 1434.7234003 -1315.36706574 1429.91555218 -1312.58496094 1424.14453125 C-1308.62969524 1415.85191694 -1306.54319874 1408.79982282 -1306.02246094 1399.51953125 C-1305.26256903 1391.07492603 -1302.22111151 1384.24482827 -1298.54882812 1376.67822266 C-1294.92173603 1369.19393263 -1292.00680865 1361.61909829 -1289.38720703 1353.7277832 C-1286.77956811 1346.12253125 -1283.03739393 1335.98938069 -1275.52246094 1332.14453125 C-1270.85888345 1331.34311208 -1267.60967923 1331.4876702 -1263.52246094 1333.95703125 C-1260.04748723 1337.75778375 -1260.31962461 1341.18630991 -1260.52246094 1346.14453125 C-1260.94171834 1348.5427774 -1261.43288057 1350.92922238 -1261.98339844 1353.30078125 C-1262.1340274 1353.96557495 -1262.28465637 1354.63036865 -1262.43984985 1355.31530762 C-1262.91861986 1357.42674911 -1263.40687917 1359.53580527 -1263.89746094 1361.64453125 C-1269.22966457 1384.5999372 -1271.42133049 1405.2282863 -1264.52246094 1428.14453125 C-1235.94818083 1426.63118268 -1235.94818083 1426.63118268 -1208.68066406 1418.90795898 C-1199.3908792 1415.36106855 -1189.59809247 1413.90688319 -1179.81518555 1412.36206055 C-1168.99291841 1410.59772991 -1161.1134414 1407.40543483 -1152.45996094 1400.64453125 C-1146.82594723 1396.46714555 -1141.30002566 1394.62388818 -1134.55957031 1392.88671875 C-1128.67168301 1391.33021254 -1124.31590151 1388.92724636 -1119.52246094 1385.14453125 C-1114.44677099 1381.14410136 -1109.62982397 1379.58193908 -1103.33496094 1378.26953125 C-1089.4289949 1375.2747448 -1078.75528546 1367.38763618 -1067.01074219 1359.69287109 C-1064.18310034 1357.84067387 -1061.35347644 1355.99156688 -1058.52246094 1354.14453125 C-1057.88260254 1353.72494141 -1057.24274414 1353.30535156 -1056.58349609 1352.87304688 C-1047.9280414 1347.28021201 -1038.56048471 1343.60113967 -1029.04940796 1339.74490356 C-1004.08486881 1329.61015073 -980.19065194 1317.03728028 -956.13842773 1304.93457031 C-945.20411118 1299.43933336 -934.23330716 1294.03977077 -923.16836548 1288.81159973 C-913.21186851 1284.09482842 -903.79986875 1279.10158979 -895.14746094 1272.20703125 C-886.17784881 1265.05971259 -876.2701393 1259.8054761 -865.85009766 1255.07763672 C-854.09681306 1249.73478635 -843.42790486 1243.03246881 -832.56884766 1236.07763672 C-827.70004508 1232.98810484 -822.76891955 1230.00349706 -817.83496094 1227.01953125 C-809.48173029 1221.95597337 -801.1618726 1216.8420708 -792.86889648 1211.68041992 C-789.16363687 1209.37865176 -785.45761792 1207.08716762 -781.68652344 1204.89453125 C-772.95400599 1199.81548705 -764.69708033 1194.1770947 -756.42895508 1188.37329102 C-743.35594512 1179.19787761 -730.11407186 1170.28778335 -716.52832031 1161.88769531 C-711.33235292 1158.67077256 -706.2024065 1155.35976324 -701.08496094 1152.01953125 C-686.86092482 1142.74116881 -672.6235245 1133.46389665 -658.14746094 1124.58203125 C-657.17679688 1123.98261719 -656.20613281 1123.38320312 -655.20605469 1122.765625 C-653.4473548 1121.70323715 -651.66872045 1120.67302509 -649.87011719 1119.6796875 C-642.68681234 1115.53425607 -637.36471676 1110.15138002 -631.62988281 1104.25634766 C-625.37095484 1097.86641202 -618.71273651 1092.44004749 -611.52246094 1087.14453125 C-610.04584071 1086.04695266 -608.56928142 1084.94929208 -607.09277344 1083.8515625 C-602.2501237 1080.2632038 -597.38703298 1076.70308088 -592.52246094 1073.14453125 C-565.70213439 1055.5144427 -565.70213439 1055.5144427 -543.58496094 1033.01953125 C-538.58858556 1025.97157156 -530.25685831 1022.51161343 -522.77246094 1018.64453125 C-518.12650724 1016.18716731 -514.62419279 1013.75437803 -511.10449219 1009.875 C-509.46643255 1008.08324588 -507.74201846 1006.5342616 -505.89746094 1004.95703125 C-502.19531791 1001.76627373 -498.60408056 998.46885943 -495.02246094 995.14453125 C-490.96247568 991.37882294 -486.86834024 987.67232523 -482.67871094 984.05078125 C-479.75005731 981.46168167 -476.88847917 978.80258444 -474.02246094 976.14453125 C-469.9623113 972.37899565 -465.86834692 968.67233099 -461.67871094 965.05078125 C-458.75005681 962.46168123 -455.88849421 959.80256891 -453.02246094 957.14453125 C-448.94352156 953.36194734 -444.83413137 949.63291039 -440.62402344 945.99609375 C-437.30437744 943.07134988 -434.06226527 940.06177246 -430.82104492 937.05053711 C-428.55060013 934.95244505 -426.26321752 932.93924971 -423.83886719 931.01953125 C-421.81234879 929.37917909 -420.28290786 927.84169061 -418.64746094 925.83203125 C-409.83898109 915.58738621 -400.24018034 906.32269889 -389.39355469 898.27734375 C-384.1980452 894.41782242 -379.46812921 890.34689942 -375.25683594 885.42578125 C-371.65748347 881.27150874 -367.92454215 877.26191441 -364.14746094 873.26953125 C-359.32853812 868.15409554 -354.56533729 863.00142659 -349.88574219 857.7578125 C-346.24534531 853.73231579 -342.52836162 849.77905771 -338.81958008 845.81665039 C-335.15824516 841.90284362 -331.51432689 837.97446534 -327.89746094 834.01953125 C-327.0221875 833.06304688 -326.14691406 832.1065625 -325.24511719 831.12109375 C-323.83470804 829.57918393 -322.42434318 828.03723382 -321.01416016 826.49511719 C-314.13486318 818.97984634 -307.23155804 811.53255355 -299.77246094 804.58203125 C-293.73393406 798.0402938 -292.60139779 791.79022259 -291.52246094 783.14453125 C-296.62783389 780.56974359 -301.5506742 778.37502871 -307.08496094 776.9375 C-313.09345172 775.1558423 -318.09147341 772.17052723 -323.39746094 768.89453125 C-324.36780273 768.3111499 -325.33814453 767.72776855 -326.33789062 767.12670898 C-330.24670262 764.77466889 -334.13902586 762.40137322 -337.98339844 759.9453125 C-350.43702887 752.18359606 -363.9406494 748.48066864 -378.5300293 747.60839844 C-384.74788198 747.02821673 -384.74788198 747.02821673 -386.98876953 744.47167969 C-387.80190974 743.08197317 -388.5803913 741.67149956 -389.32592773 740.24438477 C-393.2598092 733.34062747 -401.22304097 729.81846995 -408.02246094 726.33203125 C-409.07618896 725.78651611 -410.12991699 725.24100098 -411.21557617 724.67895508 C-423.07523618 718.66835317 -435.28277919 713.43374675 -447.51464844 708.2331543 C-457.09070953 704.15214225 -466.45105726 699.80597254 -475.71507263 695.05909729 C-487.81749796 688.93508555 -500.2761385 683.56016675 -512.73852539 678.21972656 C-514.05192114 677.65690235 -515.36531632 677.09407683 -516.67871094 676.53125 C-517.33272385 676.25113068 -517.98673676 675.97101135 -518.66056824 675.68240356 C-523.06564752 673.78915021 -527.43858019 671.83522706 -531.80371094 669.8515625 C-544.12033192 664.31239535 -555.9498172 659.70196072 -569.26782227 657.19360352 C-578.77410059 655.31129138 -585.40604912 651.34876507 -591.27246094 643.51953125 C-595.75282611 637.1258005 -595.75282611 637.1258005 -602.47412109 633.79003906 C-604.80831487 633.63156041 -607.12050372 633.59110703 -609.45996094 633.58203125 C-622.6947601 633.15949644 -633.47963974 630.71799715 -645.14746094 624.47265625 C-645.8176123 624.11695557 -646.48776367 623.76125488 -647.17822266 623.39477539 C-648.91538355 622.46830164 -650.64507628 621.52779529 -652.37060547 620.57983398 C-663.83568271 614.52006259 -675.9791537 610.75544193 -688.28564453 606.7722168 C-703.48544289 601.83002238 -717.48990878 596.30587177 -730.83496094 587.39453125 C-736.49982929 583.61775324 -742.01169625 581.11004512 -748.52246094 579.14453125 C-761.06378349 575.20448041 -772.83870594 570.07564583 -784.52246094 564.08203125 C-800.29210009 556.05562549 -817.4422652 550.8347579 -834.42871094 546.0234375 C-844.52604641 543.12646387 -852.8533882 538.17722968 -861.76855469 532.75 C-864.31025583 531.26824231 -866.88898764 529.88957561 -869.5 528.53466797 C-876.5470164 524.87614508 -883.29702402 520.86551423 -890.02246094 516.64453125 C-902.63251644 508.78100129 -914.86862327 502.34312411 -928.70996094 496.89453125 C-952.78001779 487.34470969 -972.43122804 472.6236613 -991.7734375 455.67578125 C-994.21543775 453.53783798 -996.66952628 451.41397027 -999.12329102 449.28955078 C-1000.38967716 448.19263475 -1001.6551399 447.09465174 -1002.91967773 445.99560547 C-1005.93780005 443.37362878 -1008.96414747 440.7632539 -1012.01855469 438.18359375 C-1036.18860122 417.74807785 -1057.87385505 397.96753439 -1062.52246094 365.14453125 C-1063.77418036 348.30040574 -1063.0461147 332.1580951 -1057.52246094 316.14453125 C-1056.92884766 314.39462891 -1056.92884766 314.39462891 -1056.32324219 312.609375 C-1050.77025771 298.01664836 -1039.75868099 287.29070739 -1028.85839844 276.5078125 C-1026.24059438 273.85936525 -1023.79454874 271.10902008 -1021.37402344 268.28125 C-1018.25278254 264.67931167 -1015.01023493 261.18734483 -1011.78808594 257.67578125 C-1009.42875716 255.1078617 -1009.42875716 255.1078617 -1007.14746094 252.01953125 C-1003.67077093 248.21172791 -999.65923569 245.40162253 -995.50683594 242.36328125 C-990.74510146 238.82314358 -986.39284471 234.91017353 -982.08105469 230.83984375 C-970.20115712 219.73810542 -956.80211838 211.2533438 -943.03320312 202.71533203 C-940.54836587 201.16073821 -938.08482441 199.57668683 -935.62402344 197.984375 C-925.23990502 191.3259881 -914.5929574 185.53166533 -903.51208496 180.13110352 C-896.05432277 176.49447044 -888.8420821 172.71478341 -881.83496094 168.26953125 C-847.07553156 146.37542737 -804.13478215 133.62665373 -765.58496094 119.95703125 C-764.83453522 119.68858398 -764.0841095 119.42013672 -763.3109436 119.14355469 C-750.50456947 114.57501795 -737.66184014 111.0900489 -724.31176758 108.47363281 C-705.63983558 104.76622847 -687.89047678 98.23820496 -670.14746094 91.45703125 C-654.22262901 85.39735791 -638.45819656 81.20758659 -621.69398499 78.20741272 C-614.22839666 76.81216237 -607.15047207 74.89664606 -599.94433594 72.5234375 C-584.10656754 67.49314169 -567.99511508 63.75991107 -551.81793213 60.00610352 C-548.67423824 59.2740695 -545.5328807 58.53228738 -542.39153194 57.79026508 C-539.27486724 57.05485633 -536.15714948 56.32399468 -533.03909492 55.5945034 C-531.59421635 55.25627471 -530.14954285 54.9171682 -528.70512199 54.57699013 C-523.65338226 53.38995698 -518.59113102 52.25685161 -513.52246094 51.14453125 C-512.70412529 50.9614101 -511.88578964 50.77828896 -511.04265594 50.58961868 C-490.07698705 45.94677391 -468.82476176 43.16688528 -447.57079458 40.21840763 C-443.35120249 39.63220964 -439.13224925 39.04148045 -434.91327298 38.45086932 C-424.94784481 37.05596417 -414.98135996 35.66880585 -405.01416016 34.28662109 C-394.80091533 32.87017352 -384.58960956 31.44032632 -374.37915218 30.0039351 C-365.54123664 28.76113202 -356.70215842 27.5268505 -347.86213124 26.29915786 C-342.61344394 25.57013882 -337.36522882 24.83809627 -332.11812973 24.09772491 C-292.50324807 18.5143354 -292.50324807 18.5143354 -275.64846802 18.31097412 C-270.97146191 18.22205743 -266.77611588 17.11344184 -262.31542969 15.76171875 C-258.90251878 15.00753704 -255.82607772 15.09759185 -252.33496094 15.20703125 C-245.71270597 15.37037567 -239.9796649 14.37373095 -233.59594727 12.65454102 C-224.8005909 10.29517729 -215.97684368 9.97045151 -206.90942383 9.49755859 C-195.49298919 8.90026168 -184.22408306 8.25197624 -172.97021484 6.11865234 C-166.25380687 4.84923959 -160.11254109 4.79014848 -153.36273193 5.65112305 C-148.44411201 6.20701815 -143.58710844 6.30860175 -138.640625 6.2890625 C-137.22139929 6.2855352 -137.22139929 6.2855352 -135.77350235 6.28193665 C-124.92144533 6.20365394 -114.0974681 5.6340502 -103.26384735 5.03335571 C-99.52726907 4.82623505 -95.79035233 4.62653193 -92.05328369 4.4284668 C-84.79568078 4.04258434 -77.538502 3.64910362 -70.28140259 3.25389099 C-60.39682443 2.71580921 -50.5120019 2.18258428 -40.62671661 1.65762329 C-36.97875648 1.46222273 -33.33115209 1.26097286 -29.68353271 1.05932617 C-19.78992012 0.52387646 -9.9099913 0.02945193 0 0 Z M-103.89746094 403.14453125 C-112.73267096 413.24191414 -115.84661588 425.10304333 -118.24098206 438.04808044 C-121.05028872 453.15439684 -124.62200056 468.03190536 -128.40136719 482.921875 C-128.66888227 483.97591019 -128.93639736 485.02994537 -129.21201897 486.11592102 C-130.87699898 492.66492027 -132.55275592 499.21112962 -134.23205566 505.75646973 C-136.48910585 514.55693034 -138.73576095 523.36003217 -140.97715569 532.16449165 C-141.74706052 535.18201215 -142.52230206 538.19812051 -143.29823303 541.21409607 C-147.29194685 556.81443415 -151.13788157 572.49935002 -153.77246094 588.39453125 C-155.43455341 597.08855344 -158.50784723 605.36941227 -161.47460938 613.69238281 C-164.29184755 621.73908057 -164.29184755 621.73908057 -164.52246094 630.14453125 C-151.85071797 623.23667137 -144.65916185 607.11041312 -137.52246094 595.14453125 C-136.94270508 594.17725098 -136.36294922 593.2099707 -135.765625 592.21337891 C-109.63285343 548.49263089 -86.51889162 501.82169236 -86.22729492 449.91748047 C-86.21565145 448.47467337 -86.19501034 447.03191326 -86.16577148 445.58935547 C-86.12313429 443.47464594 -86.10695076 441.36117916 -86.09667969 439.24609375 C-86.08209717 438.00166504 -86.06751465 436.75723633 -86.05249023 435.47509766 C-86.60556314 431.55560648 -87.86192607 430.00003563 -90.52246094 427.14453125 C-93.32100208 421.19908285 -94.4255959 414.45004557 -95.77636719 408.0625 C-96.43463466 405.48801935 -97.22348777 403.447003 -98.52246094 401.14453125 C-101.6574946 400.82246338 -101.6574946 400.82246338 -103.89746094 403.14453125 Z M63.47753906 740.14453125 C61.0961665 740.85651923 58.72396775 741.58818424 56.35253906 742.33203125 C55.68738281 742.52861328 55.02222656 742.72519531 54.33691406 742.92773438 C47.36102849 745.15044301 43.08009044 748.79126787 39.10253906 755.01953125 C35.47156607 760.21461568 31.29527783 764.27568677 26.60253906 768.51953125 C15.91347382 778.24819775 6.95909135 788.72308473 2.30566406 802.65234375 C-0.80687871 811.96517564 -5.07790328 819.33865275 -10.76464844 827.34838867 C-16.67998339 835.68727315 -20.82767627 843.72322601 -23.83496094 853.51953125 C-25.84363221 859.92093608 -28.6224546 865.02089752 -32.48852539 870.48974609 C-34.71670728 873.66905666 -36.33443342 876.20938386 -36.52246094 880.14453125 C-35.86246094 881.13453125 -35.20246094 882.12453125 -34.52246094 883.14453125 C-28.7492501 877.02248592 -23.65310935 870.48849065 -18.58203125 863.78491211 C-14.99319404 859.04692717 -11.32949767 854.38507978 -7.58496094 849.76953125 C-1.81118889 842.62511093 3.62233576 835.24828168 9.04003906 827.83203125 C11.66537678 824.23977227 14.32865785 820.67945263 17.01708984 817.13427734 C24.44665247 807.33003672 31.50524539 797.27773976 38.47753906 787.14453125 C38.93902344 786.47566895 39.40050781 785.80680664 39.87597656 785.11767578 C45.10888902 777.50418459 50.04698876 769.72195878 54.85253906 761.83203125 C55.60301514 760.61386719 55.60301514 760.61386719 56.36865234 759.37109375 C59.6452112 753.92308106 62.73279383 748.29229615 64.47753906 742.14453125 C63.98253906 741.15453125 63.98253906 741.15453125 63.47753906 740.14453125 Z M-203.52246094 835.14453125 C-216.5200567 859.94549923 -219.99163399 890.53578463 -224.52636719 917.88671875 C-224.6571743 918.67529266 -224.78798141 919.46386658 -224.92275238 920.27633667 C-226.25413596 928.31706148 -227.56801187 936.36038957 -228.84947586 944.40922546 C-231.36690886 960.20072637 -233.90964028 975.79897184 -238.52246094 991.14453125 C-239.03852376 992.94648925 -239.55423373 994.74854841 -240.06933594 996.55078125 C-240.37641479 997.59250488 -240.37641479 997.59250488 -240.68969727 998.65527344 C-242.79049546 1005.82632653 -244.37882569 1012.63130305 -244.52246094 1020.14453125 C-244.54953125 1021.12421875 -244.57660156 1022.10390625 -244.60449219 1023.11328125 C-244.67295473 1028.34132959 -244.60849121 1033.47225938 -244.12011719 1038.67578125 C-242.55540213 1057.18320221 -245.35944236 1075.18951568 -247.78320312 1093.50390625 C-248.89703909 1101.9454561 -249.92008668 1110.39813243 -250.94671631 1118.85064697 C-251.26384492 1121.44893868 -251.58605577 1124.0465517 -251.90966797 1126.64404297 C-253.56971184 1140.02411479 -254.70928163 1153.2148147 -254.70776367 1166.70947266 C-254.70997193 1168.90546464 -254.72827059 1171.1009698 -254.74707031 1173.296875 C-254.77357059 1180.16365044 -254.70450772 1186.55526744 -252.52246094 1193.14453125 C-246.70961923 1191.36838517 -244.50566041 1187.91509785 -241.62011719 1182.71875 C-241.13140137 1181.78409912 -241.13140137 1181.78409912 -240.6328125 1180.83056641 C-236.67593426 1173.28373386 -232.08026042 1166.80081822 -226.60717773 1160.2878418 C-220.12775567 1152.56262959 -214.31374379 1144.39233224 -208.52246094 1136.14453125 C-208.04035156 1135.45858887 -207.55824219 1134.77264648 -207.06152344 1134.06591797 C-192.05056928 1112.6328049 -178.0683319 1090.38860321 -165.22998047 1067.58544922 C-159.00980762 1056.54888724 -151.82361646 1046.28403907 -144.50048828 1035.95605469 C-140.9140127 1030.85831921 -137.42715437 1025.69207355 -133.94677734 1020.52148438 C-125.27868914 1007.74990175 -125.27868914 1007.74990175 -120.94287109 1003.65139771 C-114.53643744 997.26327128 -112.41171235 989.42346026 -109.76464844 981.02734375 C-109.25016514 979.44469347 -108.73402941 977.86257951 -108.21633911 976.28097534 C-106.86230146 972.12770977 -105.53276162 967.96698739 -104.20776367 963.80438232 C-103.13649339 960.45315257 -102.04781379 957.10771206 -100.95806694 953.76245308 C-99.63743063 949.70690685 -98.3250343 945.64871202 -97.01464844 941.58984375 C-96.77282711 940.84160465 -96.53100578 940.09336555 -96.28185654 939.32245255 C-93.63295597 931.10120346 -91.0801549 922.85146267 -88.67919922 914.55419922 C-88.46185057 913.83004381 -88.24450191 913.1058884 -88.02056694 912.35978889 C-86.63775054 907.4764711 -86.17932093 903.22481326 -86.52246094 898.14453125 C-89.86654303 893.84499713 -95.03859791 892.87480971 -100.09667969 891.46484375 C-108.45838857 888.2422011 -115.61385158 882.76540883 -122.70996094 877.39453125 C-130.81029603 871.35793035 -138.98787737 865.55107344 -147.52246094 860.14453125 C-148.26544434 859.67305664 -149.00842773 859.20158203 -149.77392578 858.71582031 C-159.14808347 852.81691331 -168.65970011 847.37844386 -178.64746094 842.58203125 C-179.48744629 842.17662109 -180.32743164 841.77121094 -181.19287109 841.35351562 C-188.32118942 838.02329195 -195.54102846 834.86812183 -203.52246094 835.14453125 Z M-59.45996094 965.14453125 C-60.49419189 966.64294556 -60.49419189 966.64294556 -61.54931641 968.17163086 C-67.47138694 976.86486451 -72.80960667 985.74226976 -77.52246094 995.14453125 C-78.37710937 996.83449219 -78.37710937 996.83449219 -79.24902344 998.55859375 C-84.23488744 1009.27180921 -86.73123818 1020.71172179 -89.52246094 1032.14453125 C-90.5928645 1036.50290996 -91.66742581 1040.86023287 -92.74777222 1045.21615601 C-93.09988806 1046.63610877 -93.45138154 1048.05621601 -93.80227661 1049.47647095 C-96.72299205 1061.27574681 -99.80168823 1073.03137656 -102.92871094 1084.77734375 C-103.22385967 1085.88694804 -103.22385967 1085.88694804 -103.52497101 1087.01896858 C-105.33262002 1093.81455564 -107.14092892 1100.60995723 -108.96569824 1107.40097046 C-113.34440141 1123.6968678 -117.55311637 1139.97066578 -120.9568634 1156.50492859 C-121.59525297 1159.48424638 -122.29753843 1162.44548545 -123.00073242 1165.41015625 C-124.59643897 1172.27777834 -125.82959357 1179.18357878 -127.01074219 1186.1328125 C-127.23813432 1187.44689121 -127.46610998 1188.76086905 -127.69462585 1190.07475281 C-128.64943414 1195.56807319 -129.59772219 1201.06248309 -130.53491211 1206.55883789 C-133.19576251 1222.14235404 -136.12119369 1237.5571085 -140.18408203 1252.84887695 C-145.7278502 1274.03664191 -146.29631089 1295.38928664 -146.52246094 1317.14453125 C-137.65069106 1317.49534234 -130.18272871 1317.47686542 -121.95996094 1313.83203125 C-120.3377293 1313.1779871 -118.7126911 1312.53086228 -117.08496094 1311.890625 C-116.30765625 1311.58366699 -115.53035156 1311.27670898 -114.72949219 1310.96044922 C-108.07871464 1308.5017215 -101.02369195 1307.52756444 -94.04589844 1306.4453125 C-75.44035293 1303.55077256 -62.15883833 1297.777474 -50.53027344 1282.3125 C-49.56539162 1280.98854267 -48.60452786 1279.6616488 -47.64746094 1278.33203125 C-29.20312485 1253.34320938 -29.20312485 1253.34320938 -15.52246094 1251.14453125 C-5.99172455 1250.0929789 3.16673648 1252.46347995 10.97753906 1258.08203125 C14.74031206 1261.19578386 17.43318243 1264.62891164 20.20019531 1268.64453125 C20.82796875 1269.55203125 21.45574219 1270.45953125 22.10253906 1271.39453125 C22.988125 1272.70164062 22.988125 1272.70164062 23.89160156 1274.03515625 C25.30809026 1276.24570442 25.30809026 1276.24570442 27.47753906 1277.14453125 C29.85573488 1276.4387441 32.10615153 1275.66182152 34.41503906 1274.76953125 C35.11508057 1274.50132568 35.81512207 1274.23312012 36.53637695 1273.95678711 C59.26965167 1265.46226539 59.26965167 1265.46226539 76.47753906 1249.14453125 C77.41859066 1246.54509688 77.91340324 1243.9207151 78.41503906 1241.20703125 C80.98217448 1229.88294091 80.98217448 1229.88294091 86.47753906 1226.14453125 C90.32354967 1224.00395163 94.20675897 1222.06161611 98.20019531 1220.21484375 C101.00256877 1218.90593567 103.61765151 1217.48932484 106.22363281 1215.82421875 C114.18485817 1210.83375936 119.88454965 1209.34901611 129.31298828 1210.64428711 C134.31537969 1211.32069694 137.07175672 1211.01506294 141.47753906 1208.14453125 C150.01563109 1201.16226933 152.06054742 1189.51875163 153.47753906 1179.14453125 C153.75763804 1175.26420033 153.8116544 1171.40901975 153.79003906 1167.51953125 C153.78584961 1166.47700195 153.78166016 1165.43447266 153.77734375 1164.36035156 C153.49972429 1145.14554092 149.387879 1124.4855541 136.19238281 1109.75 C134.1677293 1107.85448157 131.98605622 1106.31509546 129.72753906 1104.70703125 C126.14534861 1101.99343213 124.5190304 1100.11382065 123.77832031 1095.5 C123.6790625 1094.72269531 123.57980469 1093.94539063 123.47753906 1093.14453125 C121.08066575 1079.24987466 114.82161009 1070.45387716 105.82128906 1059.921875 C103.92049361 1057.66943239 102.14228614 1055.4040918 100.41503906 1053.01953125 C98.19986196 1049.97677393 95.76019244 1047.3069423 93.16503906 1044.58203125 C89.40171042 1040.50351596 86.69036288 1036.31336871 83.97753906 1031.51953125 C77.83423881 1020.87560151 69.01882839 1015.02494244 59.14624023 1008.00488281 C54.06960127 1004.3741053 49.35022832 1000.63324484 44.81347656 996.33984375 C42.80827097 994.45535288 40.76106552 992.66543889 38.67285156 990.875 C35.21417177 987.86521782 32.04802989 984.67324324 28.89672852 981.34716797 C22.42041656 974.54708161 16.03217449 968.9742356 7.79394531 964.41479492 C3.94345333 962.25734597 1.62538691 960.23710872 -1.11254883 956.67919922 C-3.97792235 953.56028355 -7.76621794 951.63030304 -11.39746094 949.51953125 C-12.17476562 949.05546875 -12.95207031 948.59140625 -13.75292969 948.11328125 C-15.28192213 947.20359499 -16.81536772 946.30134514 -18.35351562 945.40722656 C-19.74687409 944.59605479 -21.13363679 943.77338519 -22.51171875 942.93652344 C-39.41837404 932.81056403 -51.02222564 952.87174774 -59.45996094 965.14453125 Z M-157.52246094 1108.14453125 C-161.14590316 1112.15751189 -163.37866644 1116.54232713 -165.77246094 1121.33203125 C-168.83532513 1127.28812797 -172.04154532 1132.5709401 -176.4362793 1137.66577148 C-182.89879016 1145.34439908 -188.07701919 1153.51534475 -192.70996094 1162.39453125 C-193.83966132 1164.51919257 -194.97121931 1166.64286706 -196.10449219 1168.765625 C-196.67248535 1169.83151855 -197.24047852 1170.89741211 -197.82568359 1171.99560547 C-200.4450766 1176.85674662 -203.16555327 1181.65847087 -205.89746094 1186.45703125 C-210.04493522 1193.75062584 -214.15292696 1201.06393261 -218.21582031 1208.4050293 C-220.72918467 1212.94541312 -223.25208524 1217.48043854 -225.77832031 1222.01367188 C-226.89110319 1224.01119815 -228.00197973 1226.00978842 -229.11035156 1228.00976562 C-234.06829158 1236.93145848 -238.98569017 1245.00698751 -245.65136719 1252.75390625 C-258.92234261 1269.70972454 -258.58368094 1304.13206818 -256.25146484 1324.51269531 C-255.39663131 1329.74153111 -254.02043285 1334.47440984 -251.52246094 1339.14453125 C-241.19637269 1338.81930012 -231.01075097 1337.68385279 -220.77246094 1336.33203125 C-219.55405518 1336.17895508 -218.33564941 1336.02587891 -217.08032227 1335.86816406 C-200.53660119 1333.69645832 -200.53660119 1333.69645832 -187.52246094 1324.14453125 C-183.81130298 1317.22212452 -184.34961437 1309.99173417 -184.63973999 1302.36242676 C-185.01550192 1291.4975017 -184.6170461 1281.90742276 -180.87133789 1271.58300781 C-178.43207673 1264.65226048 -177.5886531 1257.88091957 -176.89746094 1250.58203125 C-174.69667516 1227.9604023 -169.11575894 1206.43098531 -160.89746094 1185.20703125 C-155.20346401 1169.76568366 -151.97560829 1152.52347347 -150.52246094 1136.14453125 C-150.43512695 1135.17676758 -150.34779297 1134.20900391 -150.2578125 1133.21191406 C-148.86594514 1118.70199804 -148.86594514 1118.70199804 -148.52246094 1104.14453125 C-152.6187859 1104.14453125 -154.28313975 1105.69851321 -157.52246094 1108.14453125 Z " fill="#310DB9" transform="translate(1317.5224609375,-0.14453125)"/>
<path d="M0 0 C16.24116218 -0.72623083 16.24116218 -0.72623083 23.05273438 4.09863281 C24.81078577 7.61473561 24.58691529 11.26112623 24.05273438 15.09863281 C20.57690262 23.7180721 13.14521461 29.06463147 5.00585938 32.93457031 C-5.80181561 37.19473849 -16.91041881 39.10596793 -28.45825195 39.49536133 C-39.65922092 39.9575043 -50.66759271 41.26069589 -61.77148438 42.75097656 C-63.78009111 43.01445311 -65.78878561 43.27726129 -67.79756165 43.53944397 C-71.96202799 44.08475618 -76.12570325 44.63562982 -80.28881836 45.19116211 C-85.60083082 45.89988797 -90.91417392 46.59796421 -96.22807598 47.29236507 C-100.35758875 47.83254217 -104.48660435 48.37643894 -108.61545753 48.92163277 C-110.57481421 49.18026669 -112.53426361 49.43819928 -114.49381065 49.69538689 C-117.22966594 50.05541037 -119.96487672 50.41998619 -122.69995117 50.78588867 C-123.49127441 50.88933594 -124.28259766 50.9927832 -125.09790039 51.09936523 C-130.04441178 51.76721908 -134.9117824 52.65350914 -139.79571247 53.68477726 C-142.33386204 54.17299541 -144.73919785 54.33210975 -147.32226562 54.28613281 C-148.24136719 54.27324219 -149.16046875 54.26035156 -150.10742188 54.24707031 C-153.01641102 54.09501861 -155.86800112 53.75676204 -158.75976562 53.41113281 C-165.11139234 52.82924185 -170.63044649 54.04620791 -176.77224731 55.56854248 C-189.518078 58.67492627 -202.27605422 60.47236334 -215.27539062 62.12988281 C-217.43517883 62.40941438 -219.59490671 62.68941242 -221.75457764 62.96984863 C-226.2692053 63.55488865 -230.78429513 64.13616218 -235.29980469 64.71435547 C-241.00883907 65.44541007 -246.71700864 66.18295421 -252.42487335 66.92308044 C-256.86871607 67.49901113 -261.3128521 68.07265358 -265.75706482 68.64572144 C-267.93515988 68.92672725 -270.11318943 69.20824139 -272.29115295 69.49026489 C-282.9803543 70.87284099 -293.65895823 72.20667356 -304.38604736 73.25889587 C-315.03690541 74.31602329 -324.82809311 76.55488666 -335.10333252 79.53831482 C-346.24966867 82.67351586 -357.39939809 83.83889471 -368.90527344 84.8487854 C-374.99725413 85.38600127 -381.08157462 85.99818026 -387.16601562 86.61425781 C-388.952052 86.79405937 -388.952052 86.79405937 -390.77416992 86.97749329 C-404.6804104 88.42027417 -418.33393949 90.88023112 -432.04663086 93.55200195 C-439.4788966 94.95262841 -446.83821794 95.2981055 -454.38476562 95.53613281 C-472.37532863 96.18053595 -472.37532863 96.18053595 -489.95150757 99.77664185 C-503.65716449 103.7730254 -517.69567689 105.41595775 -531.82226562 107.22363281 C-533.15684517 107.39855771 -534.49134798 107.57406902 -535.82577515 107.75015259 C-552.51988882 109.95054243 -569.19325114 111.79932081 -585.99502563 112.93756104 C-596.8923095 113.68389829 -607.24956456 115.2897871 -617.85351562 117.91113281 C-623.0328472 119.18213443 -628.22615369 119.91196302 -633.50976562 120.59863281 C-639.43102231 121.38755658 -644.67793806 122.51475742 -650.25976562 124.66113281 C-661.90051247 129.12386717 -673.09172025 129.16998163 -685.38476562 129.03613281 C-698.97821845 128.89549483 -710.88994002 130.06116824 -723.61523438 135.23144531 C-728.20887402 136.93963292 -732.46059841 137.20353103 -737.33789062 137.16894531 C-752.76326949 137.236344 -765.98186814 138.65809074 -780.81835938 143.27050781 C-802.50848394 149.9655423 -825.95697438 151.60882953 -848.38012695 154.51269531 C-868.203326 157.08651565 -887.85671616 160.15183213 -907.49023438 163.92675781 C-910.85041055 164.57003327 -914.21114293 165.21032222 -917.57226562 165.84863281 C-918.39058868 166.00455902 -919.20891174 166.16048523 -920.05203247 166.32113647 C-930.76287127 168.34644071 -941.19468595 169.89438728 -952.12695312 169.93066406 C-960.07919204 170.28030238 -967.09119797 173.17569153 -974.48242188 175.97753906 C-980.03131863 177.77295436 -985.23875268 178.13976901 -991.04467773 178.1862793 C-1001.8604402 178.35892527 -1011.97116402 180.52812288 -1022.43988037 183.02661133 C-1033.74250841 185.69721249 -1044.53687066 186.862584 -1056.16503906 187.38916016 C-1064.12165343 187.8040074 -1070.62883797 189.08654853 -1078.01367188 191.98925781 C-1083.13293634 193.9251714 -1088.13592 194.23689571 -1093.56835938 193.96972656 C-1106.84565107 193.42311827 -1120.14243163 196.82931349 -1132.94726562 200.09863281 C-1141.11982764 202.06610145 -1148.62668383 202.17507571 -1157.00976562 202.03613281 C-1170.97451186 201.8131679 -1183.85497712 203.73338326 -1197.34960938 207.21972656 C-1198.73615265 207.57587914 -1200.12286855 207.93136047 -1201.50976562 208.28613281 C-1202.18362305 208.46144531 -1202.85748047 208.63675781 -1203.55175781 208.81738281 C-1209.17075034 210.16828116 -1214.56275941 210.29243995 -1220.32226562 210.34863281 C-1230.73694114 210.48977389 -1238.95992216 213.64521002 -1248.19580078 218.26660156 C-1251.86216445 220.00830318 -1254.53794339 220.15252415 -1258.53271484 219.9699707 C-1278.62076663 219.32872134 -1297.1230362 222.04557185 -1316.75982666 226.06665039 C-1320.68005364 226.86255363 -1324.60695652 227.62410718 -1328.53320312 228.38964844 C-1341.41984118 230.79571948 -1341.41984118 230.79571948 -1354.20091248 233.67045593 C-1356.40121088 234.20993267 -1358.4600382 234.26181211 -1360.72460938 234.30957031 C-1361.69390381 234.33607666 -1362.66319824 234.36258301 -1363.66186523 234.38989258 C-1364.72542236 234.41752686 -1365.78897949 234.44516113 -1366.88476562 234.47363281 C-1377.30103704 234.79446558 -1387.62538744 235.53082747 -1398.00192261 236.45141602 C-1432.34195123 239.47372204 -1464.42389082 238.26745699 -1497.49804688 227.66894531 C-1505.2830763 225.17737401 -1512.45707033 223.69767538 -1520.63476562 223.09863281 C-1530.66942385 222.36178747 -1538.67243023 219.94779243 -1547.88085938 215.76660156 C-1555.92029702 212.30619342 -1563.37635933 211.16198619 -1572.11108398 210.70166016 C-1579.07445755 210.0950924 -1584.03641659 207.59764296 -1589.8276825 203.90493774 C-1594.93192025 200.65352653 -1600.1584051 197.84778438 -1605.58398438 195.16894531 C-1606.40574158 194.76192383 -1607.22749878 194.35490234 -1608.07415771 193.93554688 C-1610.59199142 192.69335421 -1613.11296579 191.45775148 -1615.63476562 190.22363281 C-1618.20481272 188.96262727 -1620.77385372 187.6997069 -1623.3405304 186.43185425 C-1624.92000978 185.65190482 -1626.50144463 184.87589858 -1628.08512878 184.10452271 C-1635.23828475 180.57733945 -1635.23828475 180.57733945 -1637.94726562 178.09863281 C-1639.22536678 172.28139298 -1638.43964799 166.08068494 -1635.38085938 160.95800781 C-1631.67292174 156.14880259 -1628.00367976 152.67098043 -1621.88085938 151.52441406 C-1606.19174037 150.99720149 -1590.47305694 155.9665837 -1576.75195312 163.26660156 C-1565.09435516 169.23254876 -1550.28246757 169.50189373 -1537.44604492 169.54467773 C-1536.25748901 169.5694519 -1536.25748901 169.5694519 -1535.04492188 169.59472656 C-1534.34890869 169.59657959 -1533.65289551 169.59843262 -1532.93579102 169.6003418 C-1530.94726562 170.09863281 -1530.94726562 170.09863281 -1529.04736328 172.11669922 C-1527.09789392 174.33917049 -1527.09789392 174.33917049 -1524.28442383 174.47338867 C-1523.28241943 174.42061768 -1522.28041504 174.36784668 -1521.24804688 174.31347656 C-1520.13042969 174.27440186 -1519.0128125 174.23532715 -1517.86132812 174.19506836 C-1516.6728125 174.14261963 -1515.48429687 174.0901709 -1514.25976562 174.03613281 C-1505.42026757 173.83919605 -1497.85854825 174.0416171 -1489.51416016 176.96289062 C-1472.56022583 182.83456078 -1453.80048152 184.92583354 -1435.94726562 186.09863281 C-1435.30956238 186.14139343 -1434.67185913 186.18415405 -1434.01483154 186.22821045 C-1397.93417315 188.62966407 -1362.34417212 189.68220092 -1326.48583984 184.46630859 C-1323.69255729 184.06174199 -1320.89815443 183.66559471 -1318.10351562 183.27050781 C-1304.04145745 181.27941442 -1289.98939605 179.22566193 -1275.94726562 177.09863281 C-1275.04781219 176.96354309 -1274.14835876 176.82845337 -1273.22164917 176.68927002 C-1270.63987911 176.30037305 -1268.05908541 175.90556366 -1265.47851562 175.50878906 C-1264.72437881 175.39570908 -1263.970242 175.28262909 -1263.19325256 175.16612244 C-1258.4827783 174.43236839 -1253.97680882 173.38236428 -1249.38476562 172.09863281 C-1241.57551201 169.98568603 -1233.7369737 169.22037474 -1225.70331764 168.39793396 C-1217.36398689 167.49200165 -1209.22666323 166.0829352 -1201.01123047 164.40722656 C-1182.40567121 160.70053243 -1163.70907507 157.58609259 -1144.98632812 154.53613281 C-1143.62204768 154.3132597 -1143.62204768 154.3132597 -1142.23020601 154.08588409 C-1111.6414631 149.09173477 -1081.00038312 144.60116333 -1050.28320312 140.47363281 C-1049.29689691 140.34106834 -1048.31059069 140.20850388 -1047.2943964 140.0719223 C-1033.31904757 138.19547047 -1019.34032604 136.34469081 -1005.36079407 134.49970245 C-991.10108545 132.61749654 -976.84208326 130.73028228 -962.58615839 128.81960297 C-957.84336731 128.18449693 -953.10008621 127.55384824 -948.3551445 126.93499756 C-929.28016826 124.44658563 -910.46378772 121.72605657 -891.70803833 117.38380432 C-883.8565216 115.57437168 -875.92315277 114.42937269 -867.9414978 113.3678894 C-865.32190847 113.01945912 -862.70451118 112.65706841 -860.0871582 112.29223633 C-852.20199753 111.19789412 -844.31160271 110.14427896 -836.41886902 109.10612488 C-832.4900674 108.5884738 -828.56212142 108.0646368 -824.63476562 107.53613281 C-823.88909332 107.43601898 -823.14342102 107.33590515 -822.37515259 107.23275757 C-811.10511272 105.7039632 -800.06003448 103.66986039 -789.09838867 100.59179688 C-783.12909085 99.22328234 -777.26998102 98.9447435 -771.18164062 98.88769531 C-769.46809019 98.85957885 -767.75454868 98.83091421 -766.04101562 98.80175781 C-763.38933035 98.76099252 -760.73780271 98.72404212 -758.0859375 98.69726562 C-744.45911509 98.54836666 -731.35357443 97.35606595 -718.02084351 94.46380615 C-704.79851153 91.6473819 -691.4086234 89.99355657 -678.01757812 88.19238281 C-675.29626163 87.82355797 -672.57512386 87.4534215 -669.85397339 87.08337402 C-664.16414489 86.3103687 -658.47384347 85.54093055 -652.78320312 84.77392578 C-646.27598268 83.89683893 -639.76939053 83.0152161 -633.26315701 82.13083982 C-626.24840872 81.17736355 -619.23325513 80.2268964 -612.21795797 79.27746773 C-610.23909951 79.00949 -608.26031333 78.74097861 -606.28152847 78.47245789 C-602.5286054 77.96371905 -598.77540588 77.45710916 -595.02197266 76.95214844 C-593.83389071 76.79225685 -592.64580875 76.63236526 -591.42172432 76.46762848 C-585.61937366 75.69438666 -579.81546716 74.95512341 -574.00091553 74.27929688 C-572.88553846 74.14957237 -571.7701614 74.01984787 -570.62098503 73.88619232 C-568.55552811 73.64909711 -566.48948534 73.41701505 -564.4227314 73.19150543 C-557.40991113 72.39189791 -550.58381129 71.07367859 -543.69726562 69.53613281 C-533.13867062 67.24931025 -522.74922437 66.2923144 -511.95410156 65.90698242 C-503.73408986 65.53718606 -496.23199298 64.2424171 -489.05859375 59.97509766 C-486.06100226 58.73072283 -483.50264865 58.92831794 -480.26757812 59.00878906 C-478.93164492 59.02925341 -477.59570721 59.04942559 -476.25976562 59.06933594 C-474.18242317 59.11229033 -472.10538361 59.16025858 -470.02832031 59.21508789 C-461.35986939 59.4270994 -453.52591087 58.79563871 -445.03857422 56.74682617 C-440.95987622 55.89159452 -437.31879147 56.03653509 -433.19726562 56.34863281 C-419.88131929 56.87203417 -406.39196731 52.64186739 -394.0090332 47.99633789 C-390.6105307 46.9999027 -387.88845654 46.91607013 -384.35351562 47.00878906 C-383.08701172 47.03118652 -381.82050781 47.05358398 -380.515625 47.07666016 C-379.85199951 47.09122253 -379.18837402 47.10578491 -378.50463867 47.12078857 C-360.55860352 47.47270293 -343.93591824 45.89375359 -326.63476562 40.97363281 C-317.48887136 38.37447744 -309.0028369 37.57599732 -299.52124023 37.42358398 C-291.63474297 37.26478722 -283.99286642 36.48614941 -276.19726562 35.28613281 C-275.16303467 35.13257324 -274.12880371 34.97901367 -273.06323242 34.82080078 C-267.78278057 33.96611702 -262.94614237 32.78758365 -257.90429688 30.99707031 C-249.20107549 28.20827521 -240.4322856 28.53016423 -231.38476562 28.53613281 C-228.82444663 28.53246017 -226.26479273 28.5222066 -223.7046051 28.49537659 C-222.12927662 28.47928608 -220.55373304 28.4751155 -218.9783783 28.48838806 C-212.36445868 28.42827631 -205.96645481 27.39620479 -199.44938564 26.37377834 C-188.7224511 24.71235715 -177.94437606 23.51183731 -167.16113281 22.28039551 C-163.29121012 21.83793635 -159.421909 21.39035758 -155.55273438 20.94140625 C-144.56808982 19.66722598 -133.58265395 18.40001139 -122.59619141 17.14160156 C-115.8355221 16.3671609 -109.0758636 15.58430385 -102.31668091 14.79699707 C-99.75914236 14.50064509 -97.2012631 14.20721722 -94.64303589 13.91687012 C-91.0664801 13.51076664 -87.49119139 13.09481277 -83.91601562 12.67675781 C-82.87784195 12.56134644 -81.83966827 12.44593506 -80.77003479 12.32702637 C-72.32293384 11.32258763 -63.78078831 9.89189747 -55.95117188 6.44238281 C-50.76656249 4.38938977 -45.38870291 4.65519863 -39.88476562 4.59863281 C-30.16324057 4.36651079 -21.42797894 3.26599895 -11.94726562 1.09863281 C-7.96725331 0.44042367 -4.02472451 0.20386017 0 0 Z " fill="#310DB9" transform="translate(2224.947265625,1420.9013671875)"/>
<path d="M0 0 C19.5038484 3.08638027 44.04575516 13.99121552 57.125 29.1875 C58.21214402 33.00662281 57.91858119 36.65424126 56.08984375 40.1875 C51.58537092 46.00943703 45.17134716 48.64946077 38.125 50.1875 C34.79521927 50.45644953 31.46452108 50.46467361 28.125 50.5 C27.24199219 50.52900391 26.35898438 50.55800781 25.44921875 50.58789062 C12.90189071 50.70591904 2.65262195 45.27765307 -8.0625 39.25 C-9.19236328 38.64220703 -10.32222656 38.03441406 -11.48632812 37.40820312 C-12.55689453 36.81072266 -13.62746094 36.21324219 -14.73046875 35.59765625 C-15.69621826 35.06277588 -16.66196777 34.52789551 -17.65698242 33.97680664 C-19.875 32.1875 -19.875 32.1875 -20.72973633 29.61743164 C-21.23290482 21.20056448 -14.38003599 12.78526438 -9.875 6.1875 C-9.48699219 5.506875 -9.09898438 4.82625 -8.69921875 4.125 C-6.31104754 0.37340014 -4.18901496 -0.19153313 0 0 Z " fill="#310DB9" transform="translate(1323.875,1075.8125)"/>
</svg>
